<?xml version="1.0" standalone="no"?>
<!DOCTYPE svg PUBLIC "-//W3C//DTD SVG 20010904//EN"
 "http://www.w3.org/TR/2001/REC-SVG-20010904/DTD/svg10.dtd">
<svg version="1.0" xmlns="http://www.w3.org/2000/svg"
 width="512.000000pt" height="512.000000pt" viewBox="0 0 512.000000 512.000000"
 preserveAspectRatio="xMidYMid meet">
<metadata>
Created by potrace 1.11, written by Peter Selinger 2001-2013
</metadata>
<g transform="translate(0.000000,512.000000) scale(0.100000,-0.100000)"
fill="#000000" stroke="none">
<path d="M2315 4929 c-766 -79 -1449 -489 -1880 -1129 -333 -495 -481 -1084
-420 -1675 79 -773 485 -1438 1139 -1867 95 -62 122 -76 131 -66 14 15 231
386 240 409 4 12 -15 30 -76 69 -801 521 -1139 1525 -811 2410 191 513 572
926 1067 1157 777 362 1688 199 2299 -413 422 -422 642 -1002 597 -1579 -27
-350 -116 -638 -284 -913 -157 -257 -383 -491 -632 -653 -71 -46 -94 -67 -90
-78 9 -23 226 -394 240 -409 9 -10 40 7 146 77 225 150 432 339 588 541 509
655 672 1464 456 2255 -137 500 -457 985 -866 1311 -198 158 -490 323 -723
409 -130 48 -371 109 -516 130 -135 20 -474 28 -605 14z"/>
<path d="M2433 3910 c-701 -60 -1274 -592 -1389 -1290 -20 -125 -20 -367 1
-485 58 -332 204 -609 449 -850 111 -110 285 -240 300 -225 5 5 65 103 132
217 l122 207 -64 44 c-166 111 -326 318 -389 501 -45 135 -58 224 -52 371 8
177 38 291 117 438 141 261 403 458 690 518 114 25 306 25 420 0 287 -60 549
-257 690 -518 80 -149 110 -261 117 -443 8 -200 -20 -333 -108 -507 -70 -141
-206 -289 -334 -366 l-63 -38 122 -207 c67 -114 127 -212 132 -217 15 -15 189
115 300 225 309 304 465 670 465 1090 0 255 -50 473 -157 687 -282 562 -882
901 -1501 848z"/>
<path d="M2420 2871 c-92 -30 -155 -67 -219 -132 -200 -200 -202 -514 -3 -714
204 -205 520 -205 724 0 275 277 150 736 -231 849 -72 21 -200 20 -271 -3z"/>
</g>
</svg>
